<svg xmlns="http://www.w3.org/2000/svg" width="500" height="500" viewBox="0 0 500 500">
  <g id="Group_2" data-name="Group 2" transform="translate(-972 -243)">
    <rect id="Rectangle_24" data-name="Rectangle 24" width="80" height="80" rx="40" transform="translate(1182 453)" fill="#ff9d2d"/>
    <rect id="Rectangle_25" data-name="Rectangle 25" width="100" height="100" rx="11" transform="translate(1072 443)" fill="#4ac7ff"/>
    <rect id="Rectangle_26" data-name="Rectangle 26" width="100" height="100" rx="11" transform="translate(1172 343)" fill="#4ac7ff"/>
    <rect id="Rectangle_27" data-name="Rectangle 27" width="100" height="100" rx="11" transform="translate(1172 543)" fill="#4ac7ff"/>
    <rect id="Rectangle_28" data-name="Rectangle 28" width="100" height="100" rx="11" transform="translate(1272 443)" fill="#4ac7ff"/>
    <rect id="Rectangle_29" data-name="Rectangle 29" width="45" height="45" rx="22.5" transform="translate(1200 471)" fill="#ff0"/>
    <rect id="Rectangle_30" data-name="Rectangle 30" width="100" height="100" transform="translate(1072 543)" fill="none"/>
    <rect id="Rectangle_31" data-name="Rectangle 31" width="100" height="100" transform="translate(1272 343)" fill="none"/>
    <rect id="Rectangle_32" data-name="Rectangle 32" width="100" height="100" transform="translate(1272 543)" fill="none"/>
    <rect id="Rectangle_33" data-name="Rectangle 33" width="100" height="100" transform="translate(1072 343)" fill="none"/>
    <rect id="Rectangle_34" data-name="Rectangle 34" width="100" height="100" transform="translate(1172 243)" fill="none"/>
    <rect id="Rectangle_35" data-name="Rectangle 35" width="100" height="100" transform="translate(1172 643)" fill="none"/>
    <rect id="Rectangle_36" data-name="Rectangle 36" width="100" height="100" transform="translate(972 443)" fill="none"/>
    <rect id="Rectangle_37" data-name="Rectangle 37" width="100" height="100" transform="translate(1372 443)" fill="none"/>
    <rect id="Rectangle_8" data-name="Rectangle 8" width="70" height="70" rx="35" transform="translate(1087 558)" fill="#65eaff"/>
    <rect id="Rectangle_10" data-name="Rectangle 10" width="70" height="70" rx="35" transform="translate(1287 358)" fill="#65eaff"/>
    <rect id="Rectangle_12" data-name="Rectangle 12" width="62" height="59" rx="29.5" transform="translate(1287 569)" fill="#65eaff"/>
    <rect id="Rectangle_14" data-name="Rectangle 14" width="70" height="70" rx="35" transform="translate(1087 358)" fill="#65eaff"/>
    <rect id="Rectangle_16" data-name="Rectangle 16" width="70" height="70" rx="35" transform="translate(1187 258)" fill="#65eaff"/>
    <rect id="Rectangle_18" data-name="Rectangle 18" width="70" height="70" rx="35" transform="translate(1187 658)" fill="#65eaff"/>
    <rect id="Rectangle_20" data-name="Rectangle 20" width="70" height="70" rx="35" transform="translate(987 458)" fill="#65eaff"/>
    <rect id="Rectangle_22" data-name="Rectangle 22" width="70" height="70" rx="35" transform="translate(1387 458)" fill="#65eaff"/>
  </g>
</svg>
