<svg xmlns="http://www.w3.org/2000/svg" xmlns:xlink="http://www.w3.org/1999/xlink" width="50" height="65" viewBox="0 0 50 65">
  <defs>
    <filter id="Rectangle_5">
      <feOffset dx="-25" input="SourceAlpha"/>
      <feGaussianBlur stdDeviation="3" result="blur"/>
      <feFlood flood-opacity="0.161" result="color"/>
      <feComposite operator="out" in="SourceGraphic" in2="blur"/>
      <feComposite operator="in" in="color"/>
      <feComposite operator="in" in2="SourceGraphic"/>
    </filter>
    <filter id="Path_3">
      <feOffset dy="15" input="SourceAlpha"/>
      <feGaussianBlur stdDeviation="3" result="blur-2"/>
      <feFlood flood-opacity="0.161" result="color-2"/>
      <feComposite operator="out" in="SourceGraphic" in2="blur-2"/>
      <feComposite operator="in" in="color-2"/>
      <feComposite operator="in" in2="SourceGraphic"/>
    </filter>
    <filter id="Path_2">
      <feOffset dx="20" dy="2" input="SourceAlpha"/>
      <feGaussianBlur stdDeviation="3" result="blur-3"/>
      <feFlood flood-opacity="0.161" result="color-3"/>
      <feComposite operator="out" in="SourceGraphic" in2="blur-3"/>
      <feComposite operator="in" in="color-3"/>
      <feComposite operator="in" in2="SourceGraphic"/>
    </filter>
  </defs>
  <g data-type="innerShadowGroup">
    <rect id="Rectangle_5-2" data-name="Rectangle 5" width="50" height="16" transform="translate(0 49)" fill="#00cbff"/>
    <g transform="matrix(1, 0, 0, 1, 0, 0)" filter="url(#Rectangle_5)">
      <rect id="Rectangle_5-3" data-name="Rectangle 5" width="50" height="16" transform="translate(0 49)" fill="#fff"/>
    </g>
  </g>
  <g data-type="innerShadowGroup">
    <path id="Path_3-2" data-name="Path 3" d="M14.667,0H44V16H7.333C3.283,16,0,12.418,0,8S10.617,0,14.667,0Z" transform="translate(50 21) rotate(90)" fill="#00cbff"/>
    <g transform="matrix(1, 0, 0, 1, 0, 0)" filter="url(#Path_3)">
      <path id="Path_3-3" data-name="Path 3" d="M14.667,0H44V16H7.333C3.283,16,0,12.418,0,8S10.617,0,14.667,0Z" transform="translate(50 21) rotate(90)" fill="#fff"/>
    </g>
  </g>
  <g data-type="innerShadowGroup">
    <path id="Path_2-2" data-name="Path 2" d="M0,0H49.88V16H0Z" transform="translate(50 37) rotate(180)" fill="#00cbff"/>
    <g transform="matrix(1, 0, 0, 1, 0, 0)" filter="url(#Path_2)">
      <path id="Path_2-3" data-name="Path 2" d="M0,0H49.88V16H0Z" transform="translate(50 37) rotate(180)" fill="#fff"/>
    </g>
  </g>
  <path id="Path_1" data-name="Path 1" d="M8,0H37V16.043L8,16,0,8Z" transform="translate(16.122) rotate(90)" fill="#00cbff"/>
</svg>
